<?xml version="1.0" encoding="iso-8859-1"?>
<!-- Generator: Adobe Illustrator 19.0.0, SVG Export Plug-In . SVG Version: 6.00 Build 0)  -->
<svg version="1.1" id="Capa_1" xmlns="http://www.w3.org/2000/svg" xmlns:xlink="http://www.w3.org/1999/xlink" x="0px" y="0px"
	 viewBox="0 0 512 512" style="enable-background:new 0 0 512 512;" xml:space="preserve">
<path style="fill:#303C42;" d="M433.661,72.089l11.214-11.214c3.042-3.052,3.958-7.635,2.313-11.625
	c-1.646-3.99-5.542-6.583-9.854-6.583h-40.13C356.693,15.764,308.172,0,256,0C114.833,0,0,114.844,0,256s114.833,256,256,256
	s256-114.844,256-256C512,183.833,481.866,118.669,433.661,72.089z"/>
<path style="fill:#FED600;" d="M256,490.667C126.604,490.667,21.333,385.396,21.333,256S126.604,21.333,256,21.333
	c34.689,0,67.533,7.766,97.19,21.333H352c-5.896,0-10.667,4.771-10.667,10.667S346.104,64,352,64h38.501
	c4.112,2.889,8.146,5.883,12.059,9.023l-58.102,58.102c-3.042,3.052-3.958,7.635-2.313,11.625c1.646,3.99,5.542,6.583,9.854,6.583
	h85.333c5.896,0,10.667-4.771,10.667-10.667S443.229,128,437.333,128H377.75l40.833-40.833
	c44.342,42.715,72.083,102.547,72.083,168.833C490.667,385.396,385.396,490.667,256,490.667z"/>
<path style="opacity:0.1;fill:#010101;enable-background:new    ;" d="M418.583,87.167l-1.891,1.891
	c9.203,12.336,17.198,25.57,23.87,39.594c4.288,1.384,7.438,5.266,7.438,10.016c0,1.656-0.447,3.174-1.118,4.572
	c10.458,26.508,16.458,55.242,16.458,85.435c0,129.396-105.271,234.667-234.667,234.667c-57.755,0-110.615-21.069-151.542-55.798
	C120.21,458.309,184.359,490.667,256,490.667c129.396,0,234.667-105.271,234.667-234.667
	C490.667,189.714,462.926,129.882,418.583,87.167z"/>
<g>
	<path style="fill:#303C42;" d="M302.521,386.479c-29.896,24.948-63.104,24.979-93,0.031c-4.5-3.74-11.25-3.167-15.021,1.354
		c-3.771,4.521-3.167,11.25,1.354,15.021c18.875,15.76,39.104,23.75,60.146,23.75c21.063,0,41.313-8,60.188-23.781
		c4.521-3.781,5.125-10.51,1.354-15.031C313.75,383.292,306.979,382.698,302.521,386.479z"/>
	<path style="fill:#303C42;" d="M394.667,181.333c-5.896,0-10.667,4.771-10.667,10.667c0,23.531-19.146,42.667-42.667,42.667
		S298.667,215.531,298.667,192c0-5.896-4.771-10.667-10.667-10.667c-5.896,0-10.667,4.771-10.667,10.667c0,35.292,28.708,64,64,64
		s64-28.708,64-64C405.333,186.104,400.563,181.333,394.667,181.333z"/>
	<path style="fill:#303C42;" d="M234.667,192c0-5.896-4.771-10.667-10.667-10.667c-5.896,0-10.667,4.771-10.667,10.667
		c0,23.531-19.146,42.667-42.667,42.667S128,215.531,128,192c0-5.896-4.771-10.667-10.667-10.667s-10.667,4.771-10.667,10.667
		c0,35.292,28.708,64,64,64S234.667,227.292,234.667,192z"/>
	<path style="fill:#303C42;" d="M458.667,42.667h16.917l-24.458,24.458c-3.042,3.052-3.958,7.635-2.313,11.625
		c1.646,3.99,5.542,6.583,9.854,6.583h42.667c5.896,0,10.667-4.771,10.667-10.667C512,68.771,507.229,64,501.333,64h-16.917
		l24.458-24.458c3.042-3.052,3.958-7.635,2.313-11.625c-1.646-3.99-5.542-6.583-9.854-6.583h-42.667
		C452.771,21.333,448,26.104,448,32S452.771,42.667,458.667,42.667z"/>
</g>
<linearGradient id="SVGID_1_" gradientUnits="userSpaceOnUse" x1="-45.4292" y1="639.8751" x2="-23.6798" y2="629.731" gradientTransform="matrix(21.3333 0 0 -21.3333 996.3334 13791.667)">
	<stop  offset="0" style="stop-color:#FFFFFF;stop-opacity:0.2"/>
	<stop  offset="1" style="stop-color:#FFFFFF;stop-opacity:0"/>
</linearGradient>
<path style="fill:url(#SVGID_1_);" d="M433.661,72.089l11.214-11.214c3.042-3.052,3.958-7.635,2.313-11.625
	c-1.646-3.99-5.542-6.583-9.854-6.583h-40.13C356.693,15.764,308.172,0,256,0C114.833,0,0,114.844,0,256s114.833,256,256,256
	s256-114.844,256-256C512,183.833,481.866,118.669,433.661,72.089z"/>
<g>
</g>
<g>
</g>
<g>
</g>
<g>
</g>
<g>
</g>
<g>
</g>
<g>
</g>
<g>
</g>
<g>
</g>
<g>
</g>
<g>
</g>
<g>
</g>
<g>
</g>
<g>
</g>
<g>
</g>
</svg>
