<?xml version="1.0" encoding="iso-8859-1"?>
<!-- Generator: Adobe Illustrator 19.0.0, SVG Export Plug-In . SVG Version: 6.00 Build 0)  -->
<svg version="1.1" id="Layer_1" xmlns="http://www.w3.org/2000/svg" xmlns:xlink="http://www.w3.org/1999/xlink" x="0px" y="0px"
	 viewBox="0 0 321.481 321.481" style="enable-background:new 0 0 321.481 321.481;" xml:space="preserve">
<g>
	<path style="fill:#FEE050;" d="M313.981,160.741c0-84.635-68.607-153.24-153.241-153.24C76.113,7.501,7.5,76.106,7.5,160.741
		c0,84.633,68.613,153.24,153.24,153.24C245.374,313.981,313.981,245.374,313.981,160.741z"/>
	<g>
		<path style="fill:#FB7598;" d="M251.051,227.935l-18.663-22.055c-9.136,14.472-22.53,25.978-38.427,32.766l18.538,21.909
			c9.009,10.645,24.94,11.973,35.587,2.966C258.729,254.51,260.058,238.579,251.051,227.935z"/>
		<path style="fill:#BA5771;" d="M230.978,239.107l-13.521-15.497c-1.561,1.41-3.176,2.762-4.839,4.054l13.604,15.593
			c0.623,0.715,1.499,1.081,2.378,1.081c0.735,0,1.476-0.256,2.073-0.778C231.989,242.415,232.125,240.422,230.978,239.107z"/>
	</g>
	<path style="fill:#071C2C;" d="M258.02,115.814c-17.111,0-31.032,13.921-31.032,31.032c0,4.142,3.357,7.5,7.5,7.5
		s7.5-3.358,7.5-7.5c0-8.84,7.192-16.032,16.032-16.032s16.032,7.192,16.032,16.032c0,4.142,3.357,7.5,7.5,7.5s7.5-3.358,7.5-7.5
		C289.052,129.734,275.131,115.814,258.02,115.814z M79.492,146.846c0,4.142,3.358,7.5,7.5,7.5s7.5-3.358,7.5-7.5
		c0-17.111-13.921-31.032-31.032-31.032s-31.032,13.921-31.032,31.032c0,4.142,3.358,7.5,7.5,7.5s7.5-3.358,7.5-7.5
		c0-8.84,7.192-16.032,16.032-16.032S79.492,138.006,79.492,146.846z M160.74,0.001C72.107,0.001,0,72.109,0,160.741
		s72.107,160.74,160.74,160.74s160.741-72.108,160.741-160.74S249.373,0.001,160.74,0.001z M160.74,306.481
		C80.378,306.481,15,241.103,15,160.741s65.378-145.74,145.74-145.74s145.741,65.379,145.741,145.74S241.102,306.481,160.74,306.481
		z M242.18,205.84c1.58-2.857,3.029-5.811,4.321-8.866c1.614-3.815-0.171-8.216-3.985-9.83c-3.813-1.613-8.215,0.171-9.829,3.986
		c-12.254,28.97-40.494,47.689-71.946,47.689c-31.534,0-59.803-18.786-72.018-47.86c-1.605-3.819-6.002-5.613-9.82-4.009
		s-5.614,6.001-4.009,9.82c14.561,34.656,48.257,57.05,85.847,57.05c10.984,0,21.634-1.929,31.578-5.505l14.456,17.086
		c6.47,7.645,15.718,11.58,25.026,11.58c7.476,0,14.991-2.54,21.131-7.735c13.782-11.667,15.507-32.372,3.845-46.155L242.18,205.84z
		 M243.243,257.794c-7.472,6.32-18.694,5.387-25.018-2.084l-11.734-13.868c2.843-1.602,5.597-3.356,8.254-5.248l10.254,11.87
		c1.483,1.717,3.575,2.597,5.679,2.597c1.737,0,3.482-0.6,4.9-1.825c3.134-2.708,3.48-7.444,0.772-10.578l-10.133-11.729
		c2.578-2.551,5.012-5.26,7.29-8.117l11.818,13.966C251.647,240.249,250.711,251.471,243.243,257.794z"/>
</g>
<g>
</g>
<g>
</g>
<g>
</g>
<g>
</g>
<g>
</g>
<g>
</g>
<g>
</g>
<g>
</g>
<g>
</g>
<g>
</g>
<g>
</g>
<g>
</g>
<g>
</g>
<g>
</g>
<g>
</g>
</svg>
