<svg xmlns="http://www.w3.org/2000/svg" xmlns:xlink="http://www.w3.org/1999/xlink" id="Layer_1" x="0" y="0" enable-background="new 0 0 512 512" version="1.1" viewBox="0 0 512 512" xml:space="preserve"><path fill="#B1D7C5" d="M190.359,216.615V52.513c0-24.168,19.593-43.761,43.761-43.761h216.833	c22.148,0,40.261,18.035,40.261,40.078v173.418c0,22.043-18.113,40.078-40.261,40.078h-91.339l-24.562,35.627	c-2.493,3.616-6.603,5.775-10.996,5.775l0,0c-7.376,0-13.356-5.98-13.356-13.356v-29.997h-76.581	C209.952,260.376,190.359,240.783,190.359,216.615z"/><path fill="#CF8F3D" d="M157.812,8.752c28.814,0,52.173,23.252,52.173,51.934c0,28.683-23.358,51.934-52.173,51.934	S105.64,89.369,105.64,60.686C105.64,32.004,128.998,8.752,157.812,8.752L157.812,8.752z"/><path fill="#B76700" d="M209.984,60.686c0,28.683-23.358,51.934-52.173,51.934c-20.516,0-38.258-11.792-46.779-28.937	c7.02,3.5,14.938,5.48,23.323,5.48c28.814,0,52.173-23.25,52.173-51.933c0-8.26-1.946-16.065-5.393-22.998	C198.237,22.758,209.984,40.352,209.984,60.686z"/><path fill="#FF4328" d="M367.849,136.363h-94.671c2.498,30.159,22.83,53.87,47.333,53.87h0.002	C345.019,190.233,365.348,166.521,367.849,136.363L367.849,136.363z"/><g><path fill="#C13421" d="M367.849,136.363c-2.501,30.159-22.83,53.87-47.335,53.87h-0.002c-6.097,0-11.936-1.47-17.306-4.141 c16.211-8.061,28.15-27.075,30.029-49.729h34.615V136.363z"/><path fill="#C13421" d="M201.299,180.518v167.414h-87.521V180.744c0,0-0.609-22.009,23.019-22.009h42.03 C204.221,158.733,201.299,180.518,201.299,180.518z"/></g><path fill="#78A097" d="M365.219,78.902l1.685,29.591c0.131,2.317,2.049,4.128,4.368,4.128h53.533	c2.32,0,4.237-1.811,4.37-4.128l1.685-29.591H365.219z"/><path fill="#F4BB19" d="M429.249,107.214l-4.727,83.02h-52.962l-4.727-83.02H429.249z"/><path d="M450.953,0H234.12c-14.172,0-27.041,5.651-36.496,14.809C186.937,5.594,173.022,0,157.812,0	c-33.594,0-60.925,27.225-60.925,60.687c0,33.462,27.331,60.685,60.925,60.685c8.438,0,16.48-1.72,23.795-4.824v33.541	c-0.904-0.065-1.823-0.109-2.779-0.109h-42.03c-12.428,0-19.71,4.91-23.629,9.03c-1.382,1.453-2.515,2.983-3.471,4.53	c-35.451,13.479-53.507,53.031-65.515,88.347l-31.682,93.227c-1.555,4.577,0.894,9.549,5.47,11.103	c4.577,1.555,9.547-0.894,11.103-5.47l31.682-93.224c12.609-37.083,26.65-60.309,44.27-72.018v162.427	c0,4.833,3.919,8.752,8.752,8.752l0,0v137.809H85.267c-4.833,0-8.752,3.919-8.752,8.752c0,4.833,3.919,8.752,8.752,8.752h37.043	c0.073,0.001,0.147,0.002,0.221,0.002c4.833,0,8.752-3.919,8.752-8.752V356.684h52.513v146.564c0,4.833,3.918,8.752,8.752,8.752	c0.073,0,0.148-0.001,0.221-0.002h37.042c4.833,0,8.752-3.919,8.752-8.752c0-4.833-3.919-8.752-8.752-8.752H201.3v-137.81	c4.833,0,8.752-3.919,8.752-8.752v-84.669c7.214,3.742,15.395,5.865,24.068,5.865h24.694l27.742,81.62	c1.238,3.644,4.641,5.938,8.285,5.938c0.933,0,1.885-0.151,2.818-0.468c4.576-1.556,7.025-6.527,5.47-11.103l-25.829-75.986h24.647	v21.244c0,12.19,9.917,22.108,22.108,22.108c7.271,0,14.074-3.574,18.201-9.558l21.953-31.841h86.742	c27.026,0,49.013-21.906,49.013-48.831V48.83C499.966,21.904,477.978,0,450.953,0z M114.392,60.687	c0-23.811,19.478-43.183,43.42-43.183c23.941,0,43.419,19.372,43.419,43.183c0,23.81-19.478,43.181-43.419,43.181	C133.87,103.867,114.392,84.496,114.392,60.687z M125.926,170.998c2.271-2.331,5.928-3.513,10.872-3.513h42.03	c11.554,0,13.426,10.042,13.719,13.366V339.18H122.53V180.745c0-0.146,0.001-0.194-0.007-0.339	C122.522,180.348,122.413,174.604,125.926,170.998z M210.051,242.003V185.15c16.919,10.965,30.546,32.447,42.752,66.474H234.12	C224.802,251.624,216.33,247.959,210.051,242.003z M482.462,222.247c0,17.273-14.135,31.327-31.509,31.327h-91.338	c-2.878,0-5.572,1.415-7.205,3.784l-24.562,35.626c-0.86,1.247-2.277,1.99-3.791,1.99c-2.538,0-4.604-2.065-4.604-4.604v-29.995	c0-4.833-3.919-8.752-8.752-8.752H271.35c-12.197-35.816-30.626-75.919-67.13-88.726c-1.399-2.096-3.09-4.088-5.11-5.855V105.25	c12.057-11.094,19.624-26.962,19.624-44.563c0-12.013-3.537-23.214-9.609-32.649c6.36-6.493,15.21-10.534,24.994-10.534h216.833	c17.374,0,31.509,14.053,31.509,31.326V222.247z M307.272,96.212V65.02c0-4.833,3.919-8.752,8.752-8.752	c4.833,0,8.752,3.919,8.752,8.752v31.194c0,4.833-3.919,8.752-8.752,8.752C311.191,104.964,307.272,101.046,307.272,96.212z M430.86,70.149h-65.641c-2.408,0-4.71,0.991-6.362,2.742c-1.654,1.752-2.513,4.105-2.376,6.508l2.746,48.211H273.18	c-2.446,0-4.782,1.025-6.439,2.825c-1.657,1.801-2.485,4.212-2.283,6.649c2.923,35.289,27.021,61.899,56.054,61.899h0.003	c16.381,0,31.19-8.474,41.512-22.198l0.794,13.943c0.264,4.632,4.098,8.254,8.738,8.254h52.961c4.64,0,8.474-3.622,8.738-8.254	l6.34-111.332c0.137-2.404-0.722-4.758-2.376-6.508C435.57,71.141,433.268,70.149,430.86,70.149z M320.514,181.481h-0.003	c-17.048,0-32.142-15.355-37.111-36.365h74.228C352.657,166.128,337.561,181.481,320.514,181.481z M416.253,181.481h-36.425	l-5.343-93.827h47.112L416.253,181.481z"/></svg>