<?xml version="1.0" encoding="iso-8859-1"?>
<!-- Generator: Adobe Illustrator 19.0.0, SVG Export Plug-In . SVG Version: 6.00 Build 0)  -->
<svg version="1.1" id="Layer_1" xmlns="http://www.w3.org/2000/svg" xmlns:xlink="http://www.w3.org/1999/xlink" x="0px" y="0px"
	 viewBox="0 0 511.999 511.999" style="enable-background:new 0 0 511.999 511.999;" xml:space="preserve">
<path style="fill:#74532E;" d="M459.92,148.407v104.365v159.453l-57.073,56.178H276.518H115.962H51.63V204.582l0.07,0.067
	l-0.07-2.431l52.82-53.812h355.47V148.407z"/>
<path style="fill:#FF4328;" d="M223.731,262.913c0-56.658,45.93-102.588,102.588-102.588s102.588,45.93,102.588,102.588
	s-45.93,102.588-102.588,102.588S223.731,319.57,223.731,262.913z"/>
<path style="fill:#981700;" d="M430.039,262.347c0,56.971-46.183,103.154-103.154,103.154c-55.605,0-100.925-43.998-103.067-99.077
	c2.895,0.221,5.819,0.332,8.77,0.332c60.166,0,109.431-46.648,113.617-105.75C393.939,170.052,430.039,211.98,430.039,262.347z"/>
<path style="fill:#CF8F3D;" d="M142.286,277.512V96.914c0-36.947,30.142-67.175,66.983-67.175h0.004
	c36.839,0,66.983,30.231,66.983,67.175v180.598H142.286z"/>
<path style="fill:#B76700;" d="M208.081,96.914v180.598h-65.794V96.914c0-36.947,30.142-67.175,66.983-67.175h0.004
	c11.937,0,23.162,3.189,32.895,8.737C221.863,50.05,208.081,71.94,208.081,96.914z"/>
<path style="fill:#AD8A4D;" d="M459.92,148.407v263.819l-57.073,56.178H276.518H115.962H51.63V204.582l44.253,41.931l44.249-41.931
	l44.253,41.931l44.247-41.931l44.253,41.931l42.856-40.611l42.858,40.611l44.247-41.931L459.92,148.407z"/>
<path style="fill:#CAA661;" d="M115.962,468.403H51.63V204.582l44.253,41.931l44.25-41.931l44.253,41.931l44.247-41.931
	l44.253,41.931l42.856-40.611l42.858,40.611l44.247-41.931v263.821H276.518H115.962z"/>
<path style="fill:#AD8A4D;" d="M149.224,468.403V293.889h96.019l17.92,174.515H149.224z"/>
<path style="fill:#CAEEC5;" d="M119.431,293.89h117.533v209.505H119.431V293.89L119.431,293.89z"/>
<path style="fill:#4A4E34;" d="M359.861,119.827c2.306-22.019,14.79-42.686,35.468-54.624c20.678-11.938,44.816-12.415,65.04-3.404
	c-2.309,22.018-14.791,42.686-35.469,54.625C404.224,128.362,380.082,128.836,359.861,119.827L359.861,119.827z"/>
<path style="fill:#7E9332;" d="M361.95,124.662c-17.916-13.007-29.572-34.152-29.572-58.028c0-23.877,11.657-45.019,29.572-58.029
	c17.912,13.009,29.572,34.152,29.572,58.029C391.522,90.509,379.864,111.654,361.95,124.662L361.95,124.662z"/>
<path d="M388.96,134.618c14.005-0.001,27.948-3.643,40.244-10.741c22.2-12.817,37.049-35.688,39.724-61.179
	c0.388-3.706-1.651-7.241-5.055-8.759c-20.653-9.203-44.283-9.171-64.809-0.233c-3.4-20.705-14.846-39.565-32.056-52.063
	c-3.015-2.191-7.098-2.19-10.112-0.001c-20.739,15.06-33.122,39.356-33.122,64.993c0,23.639,10.534,46.129,28.431,61.297
	l-6.241,11.871h-52.72l0.29-0.158c4.171-2.277,5.706-7.506,3.43-11.676c-2.278-4.171-7.504-5.707-11.676-3.429l-0.426,0.232V96.914
	c0-0.952-0.037-1.894-0.072-2.838l8.745-4.774c4.171-2.277,5.706-7.505,3.429-11.676c-2.277-4.171-7.504-5.707-11.676-3.429
	l-3.367,1.838c-9.068-31.661-38.192-54.901-72.651-54.901c-41.679,0-75.588,33.994-75.588,75.78v42.889h-29.232
	c-2.309,0-4.523,0.928-6.141,2.576L45.489,196.19c-1.639,1.672-2.529,3.937-2.461,6.277l0.038,1.278
	c-0.027,0.276-0.041,0.556-0.041,0.837v263.821c0,4.752,3.853,8.605,8.605,8.605h59.196v26.386c0,4.752,3.853,8.605,8.605,8.605
	h117.533c4.752,0,8.605-3.853,8.605-8.605v-26.386h157.278c0.287,0,0.572-0.015,0.855-0.043c0.172-0.017,0.34-0.048,0.51-0.075
	c0.107-0.017,0.215-0.027,0.321-0.048c0.202-0.04,0.4-0.094,0.597-0.148c0.07-0.019,0.143-0.033,0.213-0.055
	c0.199-0.06,0.392-0.133,0.584-0.206c0.068-0.026,0.137-0.046,0.203-0.074c0.18-0.074,0.353-0.16,0.527-0.246
	c0.077-0.038,0.156-0.071,0.232-0.112c0.155-0.083,0.303-0.176,0.453-0.267c0.089-0.055,0.182-0.105,0.269-0.164
	c0.132-0.088,0.257-0.185,0.383-0.28c0.098-0.073,0.198-0.141,0.291-0.218c0.116-0.095,0.225-0.198,0.336-0.299
	c0.087-0.079,0.179-0.152,0.262-0.234l57.074-56.177c1.642-1.618,2.569-3.827,2.569-6.132V148.407c0-0.392-0.035-0.774-0.086-1.152
	c-0.012-0.089-0.026-0.177-0.041-0.266c-0.061-0.37-0.139-0.734-0.246-1.085c-0.001-0.004-0.002-0.01-0.003-0.015
	c-0.112-0.368-0.255-0.722-0.413-1.067c-0.032-0.07-0.066-0.138-0.1-0.208c-0.158-0.321-0.33-0.632-0.526-0.929
	c-0.012-0.018-0.022-0.038-0.034-0.056c-0.205-0.308-0.435-0.596-0.677-0.873c-0.06-0.069-0.122-0.136-0.184-0.202
	c-0.237-0.254-0.484-0.498-0.751-0.722c-0.019-0.016-0.037-0.036-0.057-0.052c-0.288-0.239-0.597-0.453-0.915-0.653
	c-0.07-0.043-0.14-0.087-0.212-0.129c-0.661-0.39-1.379-0.693-2.139-0.896c-0.074-0.02-0.147-0.04-0.222-0.057
	c-0.371-0.088-0.749-0.16-1.137-0.199c-0.002-0.001-0.005,0-0.008-0.001c-0.281-0.028-0.566-0.043-0.854-0.043h-94.513l4-7.609
	C375.831,133.81,382.401,134.618,388.96,134.618z M309.821,199.656l-24.96,23.653v-44.755c12.828-6.304,27.051-9.625,41.458-9.625
	c26.662,0,51.569,11.067,69.371,30.58l-37.09,35.149l-36.939-35.003C318.34,196.512,313.14,196.512,309.821,199.656z
	 M284.861,157.012h7.563c-2.551,0.814-5.076,1.712-7.563,2.711V157.012z M407.985,187.451
	c-13.142-14.253-29.51-24.649-47.591-30.438h78.517L407.985,187.451z M209.273,38.344c27.961,0,51.383,19.828,57.057,46.204
	l-38.116,20.809c-4.171,2.277-5.706,7.506-3.429,11.676c1.563,2.862,4.513,4.483,7.561,4.483c1.393,0,2.806-0.339,4.115-1.054
	l31.19-17.028v30.734l-39.437,21.531c-4.171,2.277-5.706,7.505-3.429,11.676c1.563,2.862,4.513,4.483,7.561,4.483
	c1.393,0,2.806-0.339,4.115-1.053l31.19-17.028v17.693c-0.318,1.314-0.329,2.702,0,4.053v54.181l-33.099-31.364
	c-3.319-3.147-8.519-3.145-11.838,0l-38.329,36.321l-33.493-31.735V96.914C150.892,64.617,177.079,38.344,209.273,38.344z
	 M108.062,157.012h25.619v41.828l-37.8,35.818L62.703,203.22L108.062,157.012z M228.359,494.789H128.036v-60.388h43.887
	c4.752,0,8.605-3.853,8.605-8.605s-3.853-8.605-8.605-8.605h-43.887V391.09h19.951c4.752,0,8.605-3.853,8.605-8.605
	c0-4.753-3.853-8.605-8.605-8.605h-19.951v-26.102h43.887c4.752,0,8.605-3.853,8.605-8.605c0-4.753-3.853-8.605-8.605-8.605h-43.887
	v-28.075h100.323V494.789z M245.569,459.798V293.89c0-4.752-3.853-8.605-8.605-8.605H119.432c-4.752,0-8.605,3.853-8.605,8.605
	v36.68h-4.099c-4.752,0-8.605,3.852-8.605,8.605c0,4.752,3.853,8.605,8.605,8.605h4.099v26.102h-4.099
	c-4.752,0-8.605,3.852-8.605,8.605c0,4.752,3.853,8.605,8.605,8.605h4.099v26.101h-4.099c-4.752,0-8.605,3.853-8.605,8.605
	s3.853,8.605,8.605,8.605h4.099v25.396H60.235V224.591l29.728,28.169c3.319,3.147,8.519,3.145,11.838,0l37.06-35.117
	c1.01,0.439,2.121,0.688,3.288,0.707l36.316,34.412c3.319,3.147,8.519,3.145,11.838,0l38.329-36.323l38.333,36.323
	c3.319,3.147,8.519,3.145,11.838,0l36.937-35.003l36.939,35.003c0.415,0.394,0.859,0.738,1.326,1.033
	c3.265,2.065,7.609,1.72,10.513-1.033l29.723-28.166v235.205H245.569V459.798z M451.315,408.622l-39.863,39.238V208.187
	l39.863-39.235V408.622z M450.798,67.325c-3.681,17.403-14.644,32.665-30.199,41.646c-11.814,6.819-25.092,9.569-38.309,8.103
	c10.174-12.633,16.4-28.193,17.611-44.564C415.407,63.66,433.985,61.843,450.798,67.325z M340.983,66.634
	c0-17.964,7.735-35.089,20.967-46.977c13.231,11.89,20.966,29.015,20.966,46.977c0,17.963-7.736,35.088-20.966,46.976
	C348.72,101.724,340.983,84.599,340.983,66.634z"/>
<g>
</g>
<g>
</g>
<g>
</g>
<g>
</g>
<g>
</g>
<g>
</g>
<g>
</g>
<g>
</g>
<g>
</g>
<g>
</g>
<g>
</g>
<g>
</g>
<g>
</g>
<g>
</g>
<g>
</g>
</svg>
