<svg xmlns="http://www.w3.org/2000/svg" xmlns:xlink="http://www.w3.org/1999/xlink" id="Layer_1" x="0" y="0" enable-background="new 0 0 295.996 295.996" version="1.1" viewBox="0 0 295.996 295.996" xml:space="preserve"><g><path fill="#FFCE00" d="M270.996,123.998c0-11.334-1.363-22.348-3.907-32.9c-7.269-15.152-17.35-28.708-29.558-39.996 c-22.391-13.376-48.766-20.666-76.771-19.645C83.492,34.273,23.139,99.196,25.955,176.463c0.412,11.304,2.17,22.239,5.087,32.673 c6.303,12.01,14.397,22.938,23.934,32.42c21.892,14.189,47.99,22.44,76.022,22.44C208.316,263.996,270.996,201.316,270.996,123.998 z M197.497,98.998c8.836,0,16,7.164,16,16s-7.164,16-16,16s-16-7.164-16-16S188.661,98.998,197.497,98.998z M98.497,98.998 c8.836,0,16,7.164,16,16s-7.164,16-16,16s-16-7.164-16-16S89.661,98.998,98.497,98.998z M114.664,218.997V198.24 c-18-6.987-33.577-19.585-44.154-35.953l13.521-8.684c12.224,18.915,32.852,31.74,55.114,34.308 c28.564,3.299,57.118-10.173,72.714-34.308l13.282,8.684c-10.693,16.549-26.477,28.948-44.477,35.867v20.843 c0,18.196-14.804,33-33,33S114.664,237.193,114.664,218.997z"/><path fill="#FFB100" d="M267.089,91.098c2.544,10.553,3.907,21.566,3.907,32.9c0,77.318-62.68,139.998-139.998,139.998 c-28.032,0-54.131-8.251-76.022-22.44c23.88,23.744,56.767,38.44,93.022,38.44c72.784,0,131.998-59.214,131.998-131.998 C279.996,127.636,275.358,108.337,267.089,91.098z"/><path fill="#FFE454" d="M160.76,31.457c28.006-1.021,54.381,6.269,76.771,19.645C213.985,29.328,182.521,16,147.998,16 C75.214,16,16,75.214,16,147.998c0,22.049,5.442,42.849,15.042,61.138c-2.917-10.434-4.675-21.369-5.087-32.673 C23.139,99.196,83.492,34.273,160.76,31.457z"/><path d="M147.998,0C66.392,0,0,66.392,0,147.998s66.392,147.998,147.998,147.998s147.998-66.392,147.998-147.998 S229.605,0,147.998,0z M147.998,279.996c-36.256,0-69.143-14.696-93.022-38.44c-9.536-9.482-17.631-20.41-23.934-32.42 C21.442,190.847,16,170.047,16,147.998C16,75.214,75.214,16,147.998,16c34.523,0,65.987,13.328,89.533,35.102 c12.208,11.288,22.289,24.844,29.558,39.996c8.27,17.239,12.907,36.538,12.907,56.9 C279.996,220.782,220.782,279.996,147.998,279.996z"/><circle cx="98.497" cy="114.998" r="16"/><circle cx="197.497" cy="114.998" r="16"/><path fill="#E36600" d="M147.664,235.997c9.374,0,17-7.626,17-17v-16.248c-5,1.088-11.284,1.651-17.116,1.651 c-3.445,0-6.984-0.195-10.446-0.595c-2.134-0.246-4.439-0.578-6.439-0.977v16.169C130.664,228.371,138.29,235.997,147.664,235.997z"/><path d="M180.664,218.997v-20.843c18-6.919,33.794-19.318,44.488-35.867l-13.355-8.684c-15.596,24.135-44.087,37.607-72.652,34.308 c-22.262-2.567-42.828-15.393-55.051-34.308L70.5,162.287c10.577,16.368,26.164,28.966,44.164,35.953v20.757 c0,18.196,14.804,33,33,33S180.664,237.193,180.664,218.997z M130.664,202.828c2,0.399,4.388,0.731,6.522,0.977 c3.462,0.399,6.834,0.595,10.279,0.595c5.832,0,12.199-0.564,17.199-1.651v16.248c0,9.374-7.626,17-17,17s-17-7.626-17-17 L130.664,202.828L130.664,202.828z"/></g></svg>